<?xml version="1.0" encoding="utf-8"?>
<!-- Generator: Adobe Illustrator 21.1.0, SVG Export Plug-In . SVG Version: 6.00 Build 0)  -->
<svg version="1.1" id="Capa_1" xmlns="http://www.w3.org/2000/svg" xmlns:xlink="http://www.w3.org/1999/xlink" x="0px" y="0px"
	 viewBox="0 0 481.9 668" style="enable-background:new 0 0 481.9 668;" xml:space="preserve">
<style type="text/css">
	.st0{fill:#2b4690;}
    
</style>
<title>Cuerpo Nacional de Policía</title>
<g>
	<path class="st0" d="M177,185.1c0-4,3.2-7.2,7.2-7.2s7.2,3.2,7.2,7.2s-3.2,7.2-7.2,7.2C180.3,192.3,177,189.1,177,185.1"/>
	<path class="st0" d="M290.4,185.1c0-4,3.2-7.2,7.2-7.2s7.2,3.2,7.2,7.2s-3.2,7.2-7.2,7.2C293.7,192.3,290.4,189.1,290.4,185.1"/>
	<path class="st0" d="M233.7,177.9c0-4,3.3-7.2,7.4-7.2c4.1,0,7.4,3.2,7.4,7.2s-3.3,7.2-7.4,7.2C237,185.1,233.7,181.9,233.7,177.9"
		/>
	<path class="st0" d="M131.5,344.3c-4.2-0.9-7.6,1.5-8.9,5.4c-1.9,5.4,1.1,10,6.3,11.8c5.1,1.7,10.2-0.1,12.1-5.5
		c1.5-4.3-0.3-8.3-4.5-10.2l-1.3,3.7c2.2,1.1,3.4,3,2.6,5.3c-1.2,3.5-4.6,3.8-7.5,2.7c-3.1-1.1-5.6-3.4-4.4-6.9
		c0.7-1.9,2.6-3.1,4.4-2.8L131.5,344.3z"/>
	<path class="st0" d="M135.7,323.4l-2,3.6l10.1,5.6c2.4,1.3,3.1,2.8,1.7,5.3c-1.6,2.9-3.6,2.4-5.4,1.4l-10.1-5.6l-2,3.6l10.1,5.6
		c4.4,2.4,7.9,1.1,10.3-3.3c2.4-4.4,1.7-8.1-2.7-10.6L135.7,323.4z"/>
	<polygon class="st0" points="153.7,330.2 162.5,319.2 159.8,317 153.6,324.8 150,321.9 155.7,314.9 153.2,312.9 147.6,319.9 
		144.5,317.4 150.6,309.8 148,307.6 139.2,318.5 	"/>
	<path class="st0" d="M156.5,303.4l3.3-3c1.4-1.2,2.6-1.3,3.8,0c1.2,1.4,1,2.6-0.3,3.9l-3.3,3L156.5,303.4z M163.8,317.6l3-2.7
		l-4.8-5.4l3-2.7c1.5-1.4,2.7-1.2,4.2,0c1.1,1,2.3,2.3,3.5,2.9l3-2.7c-1.2-0.3-2.7-1.9-3.5-2.7c-1.3-1.3-3.1-2.4-4.9-1.4l0,0
		c1-2,0.5-3.8-0.9-5.4c-1.9-2.1-5-2.4-7.5-0.2l-7.4,6.7L163.8,317.6z"/>
	<path class="st0" d="M172.5,290.7l2.7-1.7c1.6-1,3.2-1.6,4.5,0.4s0.1,3.3-1.5,4.3l-2.7,1.7L172.5,290.7z M177.4,305.8l3.4-2.2
		l-3.6-5.6l3.6-2.3c3.9-2.5,3.8-6,2.1-8.5c-1.6-2.5-4.7-4-8.6-1.5l-7,4.6L177.4,305.8z"/>
	<path class="st0" d="M190.7,287.1c-1.3-3-1.3-6.4,2-7.9s5.9,0.8,7.2,3.8c1.3,2.8,1.3,6.2-2.1,7.7
		C194.4,292.2,191.9,290,190.7,287.1 M186.9,288.8c2.2,4.9,7,7.5,12.2,5.1c5.2-2.3,6.6-7.6,4.4-12.5c-2.2-5-7.1-7.6-12.3-5.3
		C186,278.4,184.7,283.7,186.9,288.8"/>
	<polygon class="st0" points="214.6,287.9 218.4,287.3 216.4,275 216.5,275 226,286.1 230.1,285.4 227.2,267.1 223.4,267.7 
		225.3,280 225.3,280 215.7,268.9 211.7,269.5 	"/>
	<path class="st0" d="M239.6,271L239.6,271l2.5,6.8l-4.8,0.1L239.6,271z M230.8,285.1l4.1-0.1l1.4-4.2l6.9-0.1l1.5,4.1l4.2-0.1
		l-7.3-18.5l-4.2,0.1L230.8,285.1z"/>
	<path class="st0" d="M268,275.4c0.2-4.3-2.8-7.2-6.9-7.9c-5.7-0.9-9.7,2.8-10.5,8.3c-0.8,5.3,1.8,10.1,7.5,11
		c4.5,0.7,8.1-1.7,9.2-6.2l-3.9-0.6c-0.7,2.4-2.3,3.8-4.8,3.5c-3.6-0.6-4.5-3.9-4-6.9c0.5-3.2,2.4-6.1,6-5.5c2,0.3,3.5,2,3.5,3.9
		L268,275.4z"/>
	<polygon class="st0" points="267.8,288.5 271.8,289.5 276.6,271.6 272.6,270.5 	"/>
	<path class="st0" d="M280.8,282.8c1.2-3,3.7-5.4,7.1-4s3.5,4.8,2.3,7.8c-1.2,2.9-3.6,5.3-7,3.9S279.7,285.7,280.8,282.8
		 M277.1,281.3c-2,5-0.5,10.2,4.8,12.4c5.3,2.2,10.1-0.6,12.1-5.5c2.1-5.1,0.5-10.4-4.8-12.5C283.8,273.5,279.1,276.2,277.1,281.3"
		/>
	<polygon class="st0" points="292.4,298 295.6,300.1 302.3,289.7 302.4,289.7 302.1,304.3 305.5,306.6 315.6,291 312.4,288.9 
		305.6,299.3 305.6,299.3 305.9,284.6 302.5,282.4 	"/>
	<path class="st0" d="M322.5,303.1L322.5,303.1l-2.9,6.6l-3.5-3.3L322.5,303.1z M306.3,307.1l3,2.8l3.9-2l5.1,4.7l-1.8,4l3.1,2.9
		l7.6-18.3l-3.1-2.9L306.3,307.1z"/>
	<polygon class="st0" points="320,320.3 328.2,330.5 330.9,328.3 325.2,321.3 337,311.7 334.4,308.5 	"/>
	<path class="st0" d="M347,332.5l1.4,2.6c1.9,3.6,0.4,5.9-2.9,7.6c-3.6,1.9-6,0.6-7.1-1.5l-1.7-3.2L347,332.5z M331.8,336.1l3.8,7.1
		c2.7,5,7.5,5.6,12.2,3c5.4-2.9,6.4-7.5,4.1-11.8l-3.8-7.1L331.8,336.1z"/>
	<polygon class="st0" points="340,352.8 344.4,366.2 347.6,365.1 344.5,355.6 348.9,354.2 351.6,362.8 354.7,361.8 351.9,353.2 
		355.7,352 358.7,361.3 361.9,360.2 357.7,347 	"/>
	<path class="st0" d="M201.1,499.7l3,1c1.8,0.6,3.3,1.6,2.5,3.8c-0.8,2.2-2.5,2.1-4.3,1.5l-3-1L201.1,499.7z M192.2,512.9l3.9,1.3
		l2.2-6.3l4,1.4c4.4,1.5,7-0.7,8-3.5c1-2.9,0.2-6.2-4.1-7.7l-7.9-2.7L192.2,512.9z"/>
	<path class="st0" d="M213.3,510c0.6-3.2,2.6-6,6.2-5.3c3.6,0.7,4.4,4,3.7,7.2c-0.6,3-2.5,5.8-6.1,5.1
		C213.5,516.4,212.7,513.1,213.3,510 M209.3,509.3c-1,5.3,1.5,10.1,7.1,11.2c5.6,1.1,9.8-2.5,10.8-7.7c1-5.4-1.4-10.3-7.1-11.4
		C214.5,500.3,210.4,503.8,209.3,509.3"/>
	<polygon class="st0" points="228,521.8 241,522.7 241.3,519.3 232.3,518.7 233.3,503.5 229.3,503.3 	"/>
	
		<rect x="242.7" y="503.7" transform="matrix(0.9994 -3.495626e-02 3.495626e-02 0.9994 -17.7832 8.8692)" class="st0" width="4.1" height="18.6"/>
	<path class="st0" d="M264.8,507.8c-1.1-4.2-4.8-6.1-8.8-5.5c-5.7,0.8-8.4,5.5-7.7,11c0.7,5.3,4.7,9.1,10.4,8.3c4.5-0.6,7.2-4,7-8.7
		l-3.9,0.5c0,2.5-1.1,4.4-3.6,4.7c-3.6,0.5-5.4-2.4-5.9-5.5c-0.5-3.2,0.5-6.5,4.1-7c2-0.3,4,0.9,4.5,2.7L264.8,507.8z"/>
	<polygon class="st0" points="269.1,519.2 273,518.2 268.5,500.2 264.6,501.2 	"/>
	<path class="st0" d="M278.4,502L278.4,502l4.5,5.7l-4.5,1.6V502z M274.4,518.2l3.9-1.3v-4.4l6.6-2.3l2.7,3.5l4-1.4L279,497l-4,1.4
		L274.4,518.2z"/>
	<path class="st0" d="M240.9,641.6l21-8.6l-8.1-90.8c-4.3,0.4-8.6,0.6-13,0.6c-4.3,0-8.6-0.2-12.9-0.6L220,633L240.9,641.6z
		 M266.8,540.5l12.3,70.4l17.6-7.6l-17.6-65.5C275,538.8,270.9,539.7,266.8,540.5 M291.7,533.8l25.2,70.5l11,0.5l7.4-7.4l-31.9-68.5
		C299.5,530.7,295.6,532.3,291.7,533.8 M315.5,522.5l33.4,59.3l17.9-7.1l-40.7-59C322.7,518.1,319.1,520.4,315.5,522.5 M336,508
		l58.4,70l19.9-8.3l5.6-24.3l-66.1-55.2C348.3,496.7,342.4,502.6,336,508 M361.7,479.9l50.1,35.2l4.4-18.8l-47.4-27.5
		C366.6,472.6,364.2,476.3,361.7,479.9 M374.8,457.3l54.1,25l6-6.8l-2.1-10.6l-53.1-19.5C378.3,449.4,376.6,453.4,374.8,457.3
		 M383.7,432.9l44.6,11.9l3.9-16.6l-45.7-8.1C385.7,424.5,384.8,428.7,383.7,432.9 M388.1,407.5l62.7,5.5l4.7-18.5l-4.5-18.4
		l-62.8,5.5c0.4,4.2,0.5,8.5,0.5,12.8C388.7,398.9,388.5,403.2,388.1,407.5 M386.5,369l45.6-8.1l-3.9-16.8l-44.6,12
		C384.8,360.3,385.8,364.6,386.5,369 M379.8,343.8l53.1-19.5l2.3-10.5l-6.3-7L375,332.2C376.8,336,378.4,339.8,379.8,343.8
		 M369.1,320.6l47.2-27.3l-4.1-18.9L362,309.5C364.5,313.1,366.9,316.8,369.1,320.6 M354.1,299.2l66.2-55.3l-6-24.8l-19.9-8.2
		l-57.8,70.6C342.9,286.8,348.7,292.8,354.1,299.2 M326.1,273.3l40.2-59l-17.6-7.1l-33.2,59.3C319.2,268.6,322.7,270.9,326.1,273.3
		 M303.8,260.3l17.3-37.7c-4.9-2.4-9.9-4.6-15-6.5l-14.2,39.3C295.9,256.8,299.9,258.4,303.8,260.3 M327.1,209.4l16.3-35.6
		l12.3,21.1l19.1,7.9l8.2-11.7l43.6,17.8l11.6,47.6l-13.2,8.7l4.8,20.1l20.2,22.1l-7.5,33.1l4.1,17.6l14.7-2.4l9.1,38.9l-9.4,38.9
		l-14.4-2.7l-4.1,17.8l7.8,32.7L429.5,504l-4.5,20.1l12.3,8.7l-10,47.3l-44.3,18l-8-11.9l-19.3,7.6l-22.1,24.8l-33.4-1.7l-18.7,8
		l2.5,14.2l-43.1,18l-43.1-18l2.5-14.2l-18.7-8l-33.4,1.7l-22.1-24.8l-19.3-7.6l-8,11.9l-44.3-18l-10-47.3l12.3-8.7L52.4,504
		l-20.7-22.5l7.8-32.7L35.4,431L21,433.7l-9.4-38.9l9.1-38.9l14.7,2.4l4.1-17.6L32,307.5l20.2-22.1l4.8-20.1l-13.2-8.7L55.4,209
		L99,191.2l8.2,11.7l19.1-7.9l12.3-21.1l16.3,35.5c26.1-12.3,55.2-19.2,85.9-19.2C271.5,190.2,300.8,197.1,327.1,209.4 M160.6,222.1
		l17.5,38.1c3.9-1.8,7.8-3.5,11.9-5l-14.2-39.5C170.6,217.7,165.6,219.8,160.6,222.1 M202.4,251.3c4.2-1.1,8.4-2.1,12.7-2.8
		l-7.3-41.3c-5.5,1-10.9,2.2-16.1,3.6L202.4,251.3z M228,246.8c4.2-0.4,8.5-0.6,12.9-0.6s8.7,0.2,13,0.6l3.6-41.8
		c-5.4-0.5-11-0.7-16.7-0.7c-5.5,0-11,0.2-16.4,0.7L228,246.8z M266.7,248.5c4.3,0.8,8.5,1.7,12.7,2.8l10.7-40.5
		c-5.3-1.5-10.6-2.7-16.1-3.7L266.7,248.5z M166.3,266.4l-33.2-59.2l-17.6,7.1l40.2,59C159.2,270.9,162.7,268.6,166.3,266.4
		 M145.3,281.4l-57.7-70.6L67.7,219l-6,24.8l66.1,55.3C133.1,292.7,139,286.8,145.3,281.4 M119.8,309.4l-50-35l-4.1,18.9l47.1,27.2
		C114.9,316.7,117.3,313,119.8,309.4 M106.7,332.1l-53.8-25.3l-6.3,7l2.3,10.5l53,19.4C103.4,339.8,105,335.9,106.7,332.1
		 M98.1,356.1l-44.5-12l-3.9,16.8l45.5,8.1C96,364.6,96.9,360.3,98.1,356.1 M93.6,381.7l-62.7-5.5l-4.5,18.4l4.7,18.5l62.6-5.5
		c-0.4-4.3-0.6-8.7-0.6-13.1C93.1,390.2,93.2,385.9,93.6,381.7 M95.3,420.2l-45.5,8l3.9,16.6L98.1,433C97,428.8,96,424.5,95.3,420.2
		 M102,445.4l-52.9,19.4L47,475.4l6,6.8l54-24.9C105.1,453.5,103.5,449.5,102,445.4 M113,468.9l-47.3,27.5l4.4,18.8l50-35.1
		C117.6,476.4,115.2,472.7,113,468.9 M128.1,490.3L62,545.4l5.6,24.3l19.9,8.3l58.3-69.9C139.5,502.7,133.5,496.7,128.1,490.3
		 M155.8,515.7l-40.6,58.9l17.9,7.1l33.3-59.2C162.7,520.4,159.2,518.1,155.8,515.7 M178.6,529l-31.9,68.5l7.4,7.4l11-0.5l25.2-70.5
		C186.3,532.4,182.4,530.7,178.6,529 M202.8,537.8l-17.6,65.4l17.6,7.6l12.3-70.4C211,539.8,206.9,538.9,202.8,537.8 M106.4,394.5
		c0,74.5,60.2,134.9,134.5,134.9S375.4,469,375.4,394.5s-60.2-134.9-134.5-134.9S106.4,320,106.4,394.5"/>
	<path class="st0" d="M240.9,292c-56.4,0-102.2,45.9-102.2,102.5c0,56.6,45.7,102.5,102.2,102.5c56.4,0,102.2-45.9,102.2-102.5
		C343.1,337.9,297.4,292,240.9,292z M330.7,387h-19.2c-0.2-2.1-2.3-27.1-22.7-45.6l13.1-13.2C318,343,328.6,363.7,330.7,387z
		 M248.4,304.5c15.9,1.3,30.7,6.8,43.2,15.4l-13.5,13.5c-6.5-4-14.3-7.3-23.6-9.4v13.3c5.1,1.8,9.6,3.9,13.6,6.1L253,358.6l9.2,9.2
		L279,351c4.1,3.5,7.3,7.2,9.8,10.8l-23.9,24c-2.7-7.5-8.8-13.4-16.5-15.8V304.5z M248.4,428v-9c1.9-0.6,3.7-1.4,5.4-2.4l11.3,11.3
		v0.1H248.4z M264.9,440.8l-11.5,11.6c-1.7-3.2-3.1-7-4-11.6H264.9z M248.4,383.8c1.3,0.8,2.4,1.9,3.1,3.2c1.6,2.2,2.5,4.9,2.5,7.8
		c0,2.8-0.8,5.4-2.3,7.5c-0.9,1.3-2.1,2.5-3.4,3.4c-2.1,1.4-4.7,2.3-7.5,2.3s-5.4-0.8-7.5-2.3c-1.3-0.9-2.5-2.1-3.4-3.4
		c-1.4-2.1-2.3-4.7-2.3-7.5c0-2.9,0.9-5.6,2.5-7.8c0.9-1.3,2-2.3,3.3-3.2c2.2-1.4,4.7-2.3,7.5-2.3
		C243.7,381.5,246.3,382.3,248.4,383.8z M233.5,419v11.2c-0.2,8.7-1.8,15.4-4.3,20.7v-33.7C230.5,417.9,232,418.5,233.5,419z
		 M209.8,309.8c7.5-2.7,15.4-4.5,23.6-5.3v58.3c-4.1-4.7-4.3-12.4-4.3-12.4v-32.3l-13.2-0.1v16.4h-6.1V309.8z M190.8,319.6
		c2-1.4,4.1-2.7,6.1-3.8v18.7h-6.1V319.6z M157.9,429.4c-3.5-8.5-5.8-17.6-6.6-27.2h6.6V429.4z M177.6,458.6c-2.5-2.5-4.8-5.1-7-7.8
		v-48.6h7V458.6z M177.6,350.4c0,0-0.4,14.8-11,16.1v20.4h-15.3c1.8-22,11.5-41.8,26.3-56.5V350.4z M197,468.2
		c-2.5,0-4.8-0.2-6.8-0.5v-65.5h6.8V468.2z M203.4,366.6c-3.5,0-6.4,3.1-6.4,6.6V387h-17.5v-13.7c0,0,12.4-9.5,11.1-26.3h12.8h12.8
		c-1.2,15.4,9.3,24.7,10.9,26.1c-5,3.2-8.7,8.1-10.5,13.9h-6.8v-13.8C209.8,369.7,206.9,366.6,203.4,366.6z M209.8,402.2h6.8v62
		c-2.2,1.1-4.5,2-6.8,2.6V402.2z M240.9,484.7c-9.9,0-19.5-1.6-28.5-4.6c18.1-5.3,28.6-20.9,28.6-20.9s10.5,15.6,28.5,20.9
		C260.5,483.1,250.9,484.7,240.9,484.7z M274.1,467.3c-4.2-0.9-8.4-2.5-12.2-5.2l12.2-12.2V467.3z M274.1,418.8l-11.2-11.2
		c1-1.7,1.8-3.5,2.4-5.4h8.8V418.8z M294.9,373.4c2.6,7.2,2.7,12.6,2.8,13.5h-16.2L294.9,373.4z M303.5,402.2L286.7,419v-16.8H303.5
		z M294,467.4c-2,0.3-4.5,0.7-7.3,0.8v-18.5l13.1,13.1C297.9,464.4,296,465.9,294,467.4z M308.8,453.6L296,440.8h22.1
		C315.4,445.4,312.3,449.7,308.8,453.6z M324.5,427.9h-28.6l25.7-25.7h8.9C329.8,411.2,327.7,419.8,324.5,427.9z"/>
	<path class="st0" d="M340,42.3c-9.8,0-19,2.6-26.9,7.1c-10.1-6.1-21.9-9.7-34.6-9.8c-14.8-0.5-29.9,7-29.9,7v-8.4h13.6V24.3h-13.6
		V10.9h-7.5h-7.8v13.4h-13.6v14.1h13.6v8.4c0,0-15.2-7.5-30-7c-12.6,0-24.5,3.5-34.6,9.7c-7.9-4.5-17.1-7.1-26.9-7.1
		C111.5,42.4,87,67,87,97.4c0,24.1,15.6,44.6,37.3,51.9c3.5,13.8,16.1,24.1,31,24.1c12.3,0,23-7,28.3-17.2
		c5.3,10.2,16,17.2,28.3,17.2c12.9,0,24.1-7.8,29.1-18.9c5,11.1,16.1,18.9,29.1,18.9c12.3,0,23-7,28.3-17.2
		c5.3,10.2,16,17.2,28.3,17.2c15,0,27.5-10.2,31-24.1c21.6-7.3,37.1-27.9,37.1-52C394.8,66.9,370.3,42.3,340,42.3z M127.4,135.1
		c-3.8,0-6.8-3-6.8-6.8s3.1-6.8,6.8-6.8c3.8,0,6.8,3.1,6.8,6.8C134.2,132.1,131.1,135.1,127.4,135.1z M127.2,107.4
		c-8.3,0-15.5,4.9-18.7,11.8c-4.1-6.3-6.5-13.8-6.5-21.9c0-22.2,17.9-40.1,40-40.1c4.9,0,9.6,0.9,13.9,2.5
		c-12.1,12.3-19.6,29.2-19.6,47.7H127.2z M155.2,160.8c-6.7,0-12.6-3.4-16.1-8.6c-1.2-1.7-2-3.6-2.6-5.6
		c6.7-3.4,11.3-10.4,11.3-18.5c0-1.5-0.2-3-0.5-4.5c2.4-1.1,5.1-1.7,7.9-1.7c3,0,5.9,0.7,8.5,2c-0.3,1.4-0.4,2.8-0.4,4.1
		c0,7.9,4.3,14.7,10.7,18.2C171.9,154.6,164.2,160.8,155.2,160.8z M184,135.1c-3.8,0-6.8-3.1-6.8-6.8c0-3.8,3-6.8,6.8-6.8
		s6.8,3.1,6.8,6.8C190.8,132.1,187.7,135.1,184,135.1z M182.9,107.4c0-11.1,9-20.5,20.1-20.5v20.5H182.9z M211.7,160.9
		c-8.9,0-16.4-6-18.7-14.2c6.8-3.4,11.5-10.4,11.5-18.6c0-1.6-0.2-3.1-0.5-4.6c2.4-1,5-1.6,7.7-1.6c3.2,0,6.2,0.8,8.8,2.1
		c-0.3,1.4-0.4,2.8-0.5,4.2c0,7.7,4.2,14.5,10.5,18C228.4,154.6,220.8,160.9,211.7,160.9z M233.4,107.4h-12.6V75.5c0,0-8.3-5-18.7-5
		c-20.7-0.7-35.4,17.3-35.4,36.9h-14.1c0-28.1,22.7-51.5,50.8-51.5c16.5-0.3,30,9.8,30,9.8V107.4z M240.8,135.1
		c-3.8,0-6.8-3-6.8-6.8s3.1-6.8,6.8-6.8c3.8,0,6.8,3.1,6.8,6.8C247.6,132.1,244.5,135.1,240.8,135.1z M248.6,65.7
		c0,0,13.5-10.1,29.9-9.8c28.1,0,50.8,23.3,50.8,51.5h-14.1c0-19.6-14.7-37.6-35.4-36.9c-10.4,0-18.7,5-18.7,5v31.9h-12.5V65.7z
		 M278.8,87c11.1,0,20.2,9.3,20.2,20.4h-20.1L278.8,87z M270,160.8c-9.2,0-16.9-6.4-18.9-15c6.1-3.6,10.2-10.2,10.2-17.7
		c0-1.3-0.1-2.7-0.3-4c2.7-1.4,5.8-2.2,9.1-2.2c2.7,0,5.3,0.6,7.7,1.6c-0.3,1.5-0.5,3.1-0.6,4.5c0,8.2,4.7,15.2,11.5,18.6
		C286.4,154.8,278.9,160.8,270,160.8z M298,135.1c-3.8,0-6.8-3-6.8-6.8s3.1-6.8,6.8-6.8c3.8,0,6.8,3.1,6.8,6.8
		C304.8,132.1,301.7,135.1,298,135.1z M342.8,152.3c-3.4,5.2-9.4,8.6-16.1,8.6c-9,0-16.6-6.2-18.8-14.6c6.4-3.6,10.7-10.4,10.7-18.2
		c0-1.4-0.1-2.8-0.4-4.2c2.5-1.3,5.4-2,8.5-2c2.8,0,5.5,0.6,7.9,1.7c-0.3,1.5-0.5,3-0.5,4.6c0,8.1,4.6,15.1,11.3,18.5
		C344.8,148.7,343.9,150.6,342.8,152.3z M354.9,135.1c-3.8,0-6.8-3-6.8-6.8s3-6.8,6.8-6.8s6.8,3.1,6.8,6.8
		C361.7,132.1,358.6,135.1,354.9,135.1z M373.5,119.2c-3.4-7-10.5-11.8-18.9-11.8h-9c0-18.5-7.4-35.4-19.5-47.7
		c4.3-1.6,9-2.5,13.9-2.5c22.1,0,40,18,40,40.1C380,105.4,377.6,112.9,373.5,119.2z"/>
	<path class="st0" d="M269.3,496.1l-1.9,3.3l-3.1,0.8l1.5-3.2L269.3,496.1z"/>
</g>
</svg>
